<svg xmlns="http://www.w3.org/2000/svg" xmlns:xlink="http://www.w3.org/1999/xlink" xmlns:fi="http://pattern.flaticon.com/" x="0" y="0" width="700" height="350" viewBox="0 0 700 350"><rect x="0px" y="0px" width="100%" height="100%" opacity="1" fill="#ffffff"/><defs><g transform="matrix(0.078125 0 0 0.078125 242.5 67.5)" id="L1_15"><path d="m155.711 482.002c-40.317 0-73-32.683-73-73 0-40.317 32.683-73 73-73h28.871c35.965 0 61.627 34.861 50.941 69.202l-7.284 23.408c-9.881 31.756-39.271 53.39-72.528 53.39z" id="XMLID_2128_" fill="#89a7bc"/><path d="m356.289 482.002c40.317 0 73-32.683 73-73 0-40.317-32.683-73-73-73h-28.871c-35.965 0-61.627 34.861-50.941 69.202l7.284 23.408c9.881 31.756 39.271 53.39 72.528 53.39z" id="XMLID_2127_" fill="#89a7bc"/><path d="m410.351 141.587c55.895 14.677 91.649 37.153 91.649 62.348 0 44.22-110.138 80.067-246 80.067s-246-35.847-246-80.067c0-25.154 35.638-47.598 91.376-62.277z" id="XMLID_1696_" fill="#c68a65"/><path d="m366.516 49.688c-15.257-23.256-48.369-26.525-67.667-6.495-12.821 13.308-27.394 21.674-42.849 21.674s-30.028-8.366-42.849-21.674c-19.298-20.03-52.41-16.761-67.667 6.495-22.387 34.124-40.205 92.888-51.47 133.98 38.828 15.008 96.986 31.667 161.986 31.667 65.001 0 123.159-16.66 161.987-31.668-11.265-41.091-29.084-99.855-51.471-133.979z" id="XMLID_1653_" fill="#d1a184"/><g id="XMLID_61_"><path d="m448 370.786h-18.069c-13.851-26.581-41.652-44.784-73.642-44.784h-28.871c-20.355 0-38.95 9.401-51.018 25.795-3.173 4.31-5.733 8.913-7.699 13.702-3.817-1.948-8.129-3.057-12.7-3.057-4.572 0-8.887 1.106-12.704 3.055-1.966-4.788-4.526-9.39-7.698-13.699-12.067-16.393-30.662-25.795-51.018-25.795h-28.871c-31.99 0-59.791 18.203-73.642 44.784h-18.068c-5.522 0-10 4.477-10 10 0 5.522 4.478 10 10 10h10.749c-1.319 5.866-2.039 11.957-2.039 18.216 0 45.767 37.233 83 83 83 37.848 0 70.832-24.28 82.077-60.418l7.284-23.409c1.863-5.985 2.817-12.076 2.903-18.119.228-4.235 3.735-7.614 8.027-7.614 4.192 0 7.642 3.223 8.013 7.32.059 6.139 1.02 12.331 2.913 18.414l7.284 23.407c11.245 36.139 44.229 60.419 82.077 60.419 45.767 0 83-37.233 83-83 0-6.259-.719-12.35-2.039-18.216h10.751c5.522 0 10-4.478 10-10 0-5.523-4.478-10.001-10-10.001zm-222.025 31.447-7.284 23.409c-8.628 27.73-33.938 46.36-62.979 46.36-14.572 0-27.994-4.987-38.679-13.325l28.37-28.37c3.905-3.905 3.905-10.237 0-14.143-3.906-3.904-10.236-3.904-14.143 0l-27.877 27.878c-6.735-10.025-10.671-22.081-10.671-35.04 0-34.738 28.262-63 63-63h28.871c5.01 0 9.86.845 14.406 2.433l-36.227 36.227c-3.905 3.905-3.905 10.237 0 14.143 1.953 1.952 4.512 2.929 7.071 2.929 2.56 0 5.118-.977 7.071-2.929l39.21-39.21c1.194 1.273 2.324 2.626 3.378 4.059 8.259 11.217 10.621 25.279 6.483 38.579zm130.314 69.769c-16.357 0-31.529-5.911-43.205-16.028l25.668-25.668c3.905-3.905 3.905-10.237 0-14.143-3.905-3.902-10.235-3.904-14.142 0l-24.495 24.495c-2.83-4.62-5.134-9.646-6.805-15.018l-7.284-23.407c-4.139-13.301-1.776-27.362 6.481-38.58 8.258-11.218 20.982-17.651 34.911-17.651h28.871c11.081 0 21.497 2.886 30.553 7.931l-30.73 30.729c-3.905 3.905-3.905 10.237 0 14.143 1.953 1.952 4.512 2.929 7.071 2.929s5.118-.977 7.071-2.929l32.4-32.4c10.32 11.224 16.634 26.185 16.634 42.598.001 34.737-28.261 62.999-62.999 62.999z" id="XMLID_125_"/><path d="m413.123 131.977c-10.255-31.672-23.079-64.657-38.245-87.774-8.989-13.702-23.533-22.437-39.903-23.965-16.263-1.528-32.056 4.32-43.326 16.017-11.9 12.351-23.894 18.612-35.649 18.612s-23.749-6.262-35.648-18.612c-11.27-11.698-27.069-17.548-43.326-16.017-16.37 1.527-30.914 10.263-39.903 23.965-15.164 23.114-27.988 56.101-38.244 87.776-.016.004-.033.006-.049.01-63.731 16.783-98.83 42.333-98.83 71.946 0 23.582 22.142 44.617 64.031 60.829 37.661 14.576 89.677 24.48 146.465 27.89.205.012.407.017.609.017 5.248 0 9.653-4.092 9.973-9.4.33-5.514-3.87-10.251-9.383-10.582-54.782-3.288-104.659-12.727-140.445-26.576-32.57-12.606-51.25-27.979-51.25-42.178 0-17.304 27.209-35.737 71.839-49.192-2.734 9.237-5.229 18.106-7.47 26.281-1.356 4.948 1.253 10.121 6.039 11.971 38.168 14.754 97.879 32.341 165.592 32.341 67.714 0 127.425-17.587 165.592-32.341 4.786-1.85 7.396-7.023 6.039-11.971-2.241-8.174-4.735-17.044-7.469-26.281 44.636 13.455 71.838 31.882 71.838 49.192 0 14.192-18.666 29.56-51.211 42.162-35.758 13.847-85.604 23.288-140.355 26.584-5.514.332-9.713 5.07-9.381 10.583.319 5.309 4.724 9.399 9.972 9.399.203 0 .406-.006.61-.018 56.759-3.417 108.743-13.325 146.376-27.898 41.862-16.21 63.989-37.238 63.989-60.812 0-29.624-35.115-55.175-98.877-71.958zm-157.123 73.358c-59.84 0-113.287-14.45-149.916-27.815 8.062-28.895 25.873-88.984 47.761-122.347 5.634-8.588 14.761-14.063 25.04-15.023 10.169-.951 20.038 2.688 27.064 9.982 15.592 16.182 32.9 24.735 50.051 24.735s34.459-8.554 50.051-24.735c7.027-7.293 16.89-10.935 27.064-9.982 10.279.959 19.406 6.435 25.04 15.023 21.892 33.369 39.7 93.453 47.761 122.347-36.628 13.365-90.074 27.815-149.916 27.815z" id="XMLID_655_"/><path d="m263.13 291.132c1.87-1.86 2.93-4.44 2.93-7.07s-1.06-5.21-2.93-7.069c-1.86-1.86-4.43-2.931-7.07-2.931-2.63 0-5.21 1.07-7.069 2.931-1.86 1.869-2.931 4.439-2.931 7.069s1.07 5.21 2.931 7.07c1.859 1.87 4.439 2.93 7.069 2.93 2.64 0 5.21-1.06 7.07-2.93z" id="XMLID_656_"/></g></g><path d="M456,424h-8.67L432.69,255.6A28.045,28.045,0,0,0,456,228V124a28.031,28.031,0,0,0-28-28H383V48h8a8,8,0,0,0,8-8V16a8,8,0,0,0-8-8H295a8,8,0,0,0-8,8V40a8,8,0,0,0,8,8h8V96H288a8,8,0,0,0-8,8v8H232v-8a8,8,0,0,0-8-8H208V48h8a8,8,0,0,0,8-8V16a8,8,0,0,0-8-8H120a8,8,0,0,0-8,8V40a8,8,0,0,0,8,8h8V96H84a28.031,28.031,0,0,0-28,28V228a28.045,28.045,0,0,0,23.31,27.6L64.67,424H56a8,8,0,0,0-8,8v64a8,8,0,0,0,8,8H232a8,8,0,0,0,8-8V432a8,8,0,0,0-8-8h-8.67l-14.6-168H224a8,8,0,0,0,8-8v-8h48v8a8,8,0,0,0,8,8h15.27l-14.6,168H280a8,8,0,0,0-8,8v64a8,8,0,0,0,8,8H456a8,8,0,0,0,8-8V432A8,8,0,0,0,456,424ZM128,24h80v8H128Zm64,24V96H144V48Zm32,392v48H64V440ZM80.73,424l14.6-168h97.34l14.6,168ZM216,240H84a12.01,12.01,0,0,1-12-12V124a12.01,12.01,0,0,1,12-12H216Zm64-16H232V128h48ZM303,24h80v8H303Zm64,24V96H319V48ZM296,240V112H428a12.01,12.01,0,0,1,12,12V228a12.01,12.01,0,0,1-12,12ZM431.27,424H304.73l14.6-168h97.34ZM448,488H288V440H448Z" transform="matrix(0.0390625 0 0 0.0390625 77.5 340)" id="L1_16"/><path d="m352.175 463.161c-52.958 0-82.315-28.31-82.789-79.759-1.729-1.009-6.488-2.417-13.386-2.417-6.897 0-11.657 1.408-13.386 2.417-.473 51.449-29.832 79.759-82.789 79.759-4.142 0-7.5-3.358-7.5-7.5s3.358-7.5 7.5-7.5c44.985 0 67.795-22.215 67.795-66.027 0-14.269-27.832-29.669-72.795-29.669-23.452 0-62.795 3.205-62.795 24.669 0 24.833 7.319 56.698 42.188 67.477 3.958 1.224 6.174 5.423 4.951 9.38-1.224 3.957-5.426 6.173-9.38 4.951-31.968-9.882-50.441-36.134-52.555-74.308h-9.984c-4.142 0-7.5-3.358-7.5-7.5s3.358-7.5 7.5-7.5h10.619c3.761-16.057 21.385-32.169 76.956-32.169 41.476 0 73.681 12.489 84.162 31.129 4.53-1.693 10.281-2.608 17.013-2.608s12.483.915 17.013 2.608c10.481-18.64 42.686-31.129 84.162-31.129 55.57 0 73.194 16.112 76.955 32.169h10.62c4.143 0 7.5 3.358 7.5 7.5s-3.357 7.5-7.5 7.5h-9.987c-2.768 49.341-33.197 78.527-82.588 78.527zm5-110.696c-44.964 0-72.795 15.401-72.795 29.669 0 43.813 22.81 66.027 67.795 66.027 43.718 0 67.795-25.225 67.795-71.027 0-21.464-39.343-24.669-62.795-24.669zm-101.175-27.006c-60.85 0-124.781-5.209-175.4-14.291-22.882-4.105-42.078-8.85-55.512-13.72-17.351-6.29-25.088-12.703-25.088-20.795 0-11.156 13.379-16.871 23.442-20.199 9.468-3.131 22.137-5.979 37.656-8.463 4.085-.652 7.936 2.129 8.591 6.22.655 4.09-2.13 7.937-6.22 8.591-34.483 5.521-44.78 11.368-47.626 13.649 4.864 3.908 24.037 12.693 74.377 21.165 49.219 8.282 108.094 12.843 165.779 12.843s116.561-4.561 165.779-12.843c50.437-8.487 69.586-17.291 74.405-21.187-2.51-2.074-11.06-7.007-38.703-12.091-16.214-2.982-31.837-4.668-36.377-5.127-10.069 2.636-71.313 17.583-165.104 17.583-100.673 0-163.847-17.221-166.487-17.954-3.587-.996-5.901-4.473-5.434-8.167.062-.49 6.307-49.607 15.484-98.091 5.42-28.633 10.801-51.507 15.992-67.984 8.001-25.398 15.305-35.758 25.207-35.758 35.935 0 70.39 10.409 93.189 17.297 9.639 2.912 18.744 5.663 22.048 5.663 3.305 0 12.41-2.751 22.05-5.663 9.881-2.985 22.177-6.7 35.765-9.896 4.033-.946 8.07 1.55 9.019 5.583.948 4.032-1.552 8.07-5.584 9.018-13.132 3.089-25.181 6.729-34.861 9.653-12.565 3.796-20.867 6.304-26.388 6.304s-13.821-2.508-26.386-6.304c-21.806-6.588-54.683-16.521-88.165-16.655-2.143 1.657-12.788 13.788-28.143 96.853-6.621 35.817-11.561 71.01-13.476 85.252 18.336 4.272 75.478 15.849 156.169 15.849 80.692 0 137.831-11.576 156.169-15.849-1.12-8.332-3.276-23.835-6.196-42.432-18.724 3.84-72.616 13.28-149.973 13.28-56.76 0-101.227-5.146-128.536-9.462-4.091-.647-6.884-4.488-6.237-8.579.647-4.092 4.491-6.88 8.579-6.237 26.778 4.233 70.408 9.278 126.194 9.278 76.184 0 130.163-9.57 147.58-13.125-1.497-9.048-3.138-18.519-4.896-28.033-15.351-83.015-25.99-95.14-28.133-96.795-8.632.035-17.847.732-27.401 2.073-4.085.577-7.894-2.282-8.47-6.385-.575-4.102 2.283-7.894 6.386-8.47 10.496-1.473 20.647-2.22 30.172-2.22 9.902 0 17.206 10.36 25.207 35.758 5.191 16.478 10.572 39.351 15.992 67.984 7.313 38.636 12.765 77.673 14.709 92.187 7.816.874 22.208 2.68 36.781 5.524 33.698 6.578 48.075 14.462 48.075 26.362 0 8.092-7.737 14.505-25.087 20.795-13.436 4.87-32.631 9.615-55.513 13.72-50.619 9.082-114.549 14.291-175.4 14.291z" transform="matrix(0.13671875 0 0 0.13671875 315 140)" id="L1_17"/><g transform="matrix(0.1697916491523753 0.04549553527192747 -0.04549553527192747 0.1697916491523753 -31.819805153394643 -55.11351921262151)" id="L1_18"><path d="m115 15h90v100h-90z" id="XMLID_2182_" fill="#9cd6f4"/><path d="m306 15h90v100h-90z" id="XMLID_2160_" fill="#7fa6fb"/><path d="m76 85v156.667h360c0-26.892 0-138.057 0-156.667z" id="XMLID_1958_" fill="#667197"/><path d="m256 85v156.667h180c0-26.892 0-138.057 0-156.667z" id="XMLID_1904_" fill="#4d5788"/><path d="m41.694 206-11.422 241h180.728c0-10.311 0-229.858 0-241-18.548 0-153.081 0-169.306 0z" fill="#9cd6f4"/><path d="m470.306 206c-15.679 0-153.671 0-169.306 0v241h180.728z" fill="#7fa6fb"/><path d="m85 0h150v30h-150z" id="XMLID_2168_" fill="#667197"/><path d="m276 0h150v30h-150z" id="XMLID_2158_" fill="#4d5788"/><path d="m317.667 301h-16.667l-45.001-20-44.999 20h-16.667c-41.355 0-75-33.645-75-75s33.645-75 75-75h16.667l44.999 20 45.001-20h16.667c41.355 0 75 33.645 75 75s-33.645 75-75 75z" id="XMLID_2155_" fill="#f5de66"/><path d="m317.667 151h-16.667l-45 10v130l45 10h16.667c41.355 0 75-33.645 75-75s-33.645-75-75-75z" fill="#edbd40"/><path d="m0 417h240v95h-240z" id="XMLID_2178_" fill="#667197"/><path d="m211 151h90v150h-90z" id="XMLID_2153_" fill="#a78779"/><path d="m256 151h45v150h-45z" id="XMLID_3_" fill="#8c665f"/><path d="m272 417h240v95h-240z" id="XMLID_2174_" fill="#4d5788"/></g><path d="m496.977 437.572-23.137-114.682h12.064c9.536 0 17.294-7.758 17.294-17.294v-23.908c0-9.03-6.959-16.453-15.794-17.218v-74.309c8.835-.765 15.794-8.188 15.794-17.218v-23.907c0-9.536-7.758-17.294-17.294-17.294h-61.676v-28.847h5.838c9.535 0 17.293-7.758 17.293-17.295v-52.206c0-9.536-7.758-17.294-17.293-17.294h-118.964c-9.535 0-17.294 7.758-17.294 17.294v52.207c0 9.03 6.959 16.454 15.794 17.218v28.923h-107.204v-28.922c8.834-.764 15.794-8.189 15.794-17.218v-52.208c0-9.536-7.758-17.294-17.294-17.294h-118.964c-9.535 0-17.294 7.758-17.294 17.294v52.207c0 9.536 7.758 17.295 17.294 17.295h5.838v28.847h-61.676c-9.536 0-17.294 7.758-17.294 17.294v23.907c0 9.03 6.959 16.453 15.793 17.218v74.309c-8.835.765-15.793 8.188-15.793 17.218v23.908c0 9.536 7.758 17.294 17.294 17.294h12.064l-23.137 114.681c-8.464 1.118-15.023 8.363-15.023 17.127v23.907c0 9.536 7.758 17.294 17.295 17.294h192.405c9.535 0 17.294-7.758 17.294-17.294v-23.907c0-8.769-6.566-16.017-15.036-17.129l-23.375-114.68h134.834l-23.374 114.679c-8.47 1.112-15.036 8.361-15.036 17.129v23.907c0 9.536 7.758 17.294 17.294 17.294h192.405c9.536 0 17.294-7.758 17.294-17.294v-23.907c0-8.763-6.559-16.008-15.023-17.126zm-188.139-351.971v-52.207c0-1.249 1.016-2.265 2.264-2.265h118.964c1.248 0 2.264 1.016 2.264 2.265v52.207c0 1.249-1.016 2.265-2.264 2.265h-118.964c-1.249 0-2.264-1.016-2.264-2.265zm15.793 17.295h84.568v28.847h-84.568zm-244.961-17.295v-52.207c0-1.249 1.016-2.265 2.264-2.265h118.964c1.249 0 2.264 1.016 2.264 2.265v52.207c0 1.249-1.016 2.265-2.264 2.265h-118.964c-1.248 0-2.264-1.016-2.264-2.265zm23.131 17.295h84.567v28.847h-84.567zm-78.97 70.048v-23.907c0-1.248 1.016-2.265 2.265-2.265h459.808c1.249 0 2.265 1.016 2.265 2.265v23.907c0 1.249-1.016 2.265-2.265 2.265h-360.559c-4.151 0-7.515 3.365-7.515 7.515s3.364 7.515 7.515 7.515h62.023v74.157h-147.744v-74.157h55.662c4.151 0 7.515-3.364 7.515-7.515 0-4.15-3.364-7.515-7.515-7.515h-69.19c-1.25-.001-2.265-1.017-2.265-2.265zm262.936 91.45v-74.157h22.835v74.157zm-46.505 0v-74.157h31.476v74.157zm-37.864 0v-74.157h22.835v74.157zm-178.567 41.202v-23.908c0-1.249 1.016-2.265 2.265-2.265h375.064c4.151 0 7.515-3.365 7.515-7.515s-3.364-7.515-7.515-7.515h-76.529v-74.157h147.745v74.157h-41.156c-4.151 0-7.515 3.365-7.515 7.515s3.364 7.515 7.515 7.515h54.685c1.249 0 2.265 1.016 2.265 2.265v23.908c0 1.249-1.016 2.265-2.265 2.265h-459.809c-1.25 0-2.265-1.017-2.265-2.265zm172.755 131.809h-94.372c-4.151 0-7.515 3.365-7.515 7.515s3.364 7.515 7.515 7.515h107.486c1.249 0 2.264 1.016 2.264 2.265v23.907c0 1.249-1.016 2.265-2.264 2.265h-192.405c-1.249 0-2.265-1.016-2.265-2.265v-23.907c0-1.249 1.017-2.265 2.265-2.265h54.861c4.151 0 7.515-3.364 7.515-7.515s-3.364-7.515-7.515-7.515h-41.768l23.103-114.515h119.754zm261.923-114.515 23.103 114.515h-166.198l23.341-114.515zm38.462 155.716c0 1.249-1.017 2.265-2.265 2.265h-192.406c-1.249 0-2.264-1.016-2.264-2.265v-23.907c0-1.249 1.016-2.265 2.264-2.265h192.405c1.249 0 2.265 1.016 2.265 2.265v23.907z" transform="matrix(0.078125 0 0 0.078125 67.5 67.5)" id="L1_19"/><path d="m479 399.646v-74.345l-75.463-235.497h-41.482v-68.158h-90.708l.007 147.436c-10.227-.667-20.481-.667-30.708 0v-147.436h-90.708v68.158h-41.475l-75.463 235.498v74.345h-33v90.708h240.646v-188.396h30.708v188.395h240.646v-90.708zm-146.946-348v38.158h-30.708v-38.158zm1.144 161.866 4.006 1.603v56.844h-162.408v-56.844l4.006-1.603c49.781-19.912 104.614-19.912 154.396 0zm-153.26-161.866h30.708v38.158h-30.708zm30.708 408.708h-180.646v-30.708h180.646zm0-60.708h-147.646v-69.655l67.353-210.187h80.293v53.169c-14.564 2.847-28.95 7.071-42.985 12.685l-22.865 9.146v107.156h65.85zm90.708-97.687h65.85v-107.156l-22.865-9.146c-14.035-5.614-28.422-9.837-42.985-12.685v-53.169h80.293l67.353 210.188v69.655h-147.646zm180.646 158.395h-180.646v-30.708h180.646z" transform="matrix(0.13206017156295854 -0.03538541632261026 0.03538541632261026 0.13206017156295854 132.13391222325907 150.25126653534025)" id="L1_20"/><g transform="matrix(0.10071102529764175 0 0 0.10071102529764175 62.5 237.5)" id="L1_21"><path d="m380.5 207.308594c0-95.777344-77.644531-173.417969-173.421875-173.417969s-173.417969 77.640625-173.417969 173.417969 77.640625 173.421875 173.417969 173.421875c95.730469-.109375 173.308594-77.6875 173.421875-173.421875zm-330.324219 0c0-86.652344 70.25-156.902344 156.902344-156.902344 86.65625 0 156.902344 70.25 156.902344 156.902344 0 86.65625-70.246094 156.90625-156.902344 156.90625-86.613281-.101563-156.804687-70.289063-156.902344-156.90625zm0 0"/><path d="m445.578125 399.101562-.015625-.023437-.023438-.019531-17.492187-17.492188c-3.085937-3.109375-7.289063-4.855468-11.667969-4.84375h-.015625c-1.429687.019532-2.851562.226563-4.226562.613282l-20.753907-20.753907c1.535157-5.671875-.070312-11.734375-4.214843-15.902343l-12.695313-12.75c63.03125-87.414063 48.351563-208.582032-33.730468-278.414063-82.082032-69.832031-204.035157-64.90625-280.21875 11.316406-76.183594 76.222657-81.046876 198.179688-11.171876 280.226563 69.871094 82.046875 191.046876 96.664062 278.429688 33.589844l12.664062 12.75c4.128907 4.214843 10.230469 5.832031 15.902344 4.210937l20.753906 20.757813c-1.617187 5.671874.003907 11.777343 4.222657 15.898437l17.507812 17.503906.015625.023438.023438.015625 40.855468 40.855468c8.300782 8.558594 20.566407 11.976563 32.097657 8.949219 11.53125-3.027343 20.535156-12.03125 23.5625-23.5625 3.027343-11.527343-.394531-23.796875-8.949219-32.09375zm-428.433594-191.792968c-.0625-83.683594 54.65625-157.550782 134.730469-181.875 80.074219-24.320313 166.632812 6.628906 213.125 76.210937 46.496094 69.582031 41.972656 161.394531-11.136719 226.066407-.199219.246093-.402343.484374-.601562.726562-7.535157 9.074219-15.890625 17.433594-24.960938 24.972656-.296875.246094-.59375.496094-.890625.742188-56.753906 46.582031-135.28125 56.257812-201.644531 24.851562-66.363281-31.410156-108.664063-98.273437-108.621094-171.695312zm327.066407 154.148437c1.574218-1.402343 3.113281-2.835937 4.644531-4.285156 2.789062-2.640625 5.503906-5.355469 8.144531-8.148437 1.433594-1.515626 2.855469-3.039063 4.242188-4.597657 1-1.121093 2.082031-2.164062 3.058593-3.308593l11.175781 11.226562.015626.023438-23.355469 23.355468v.003906l-11.183594-11.253906c1.125-.960937 2.152344-2.03125 3.257813-3.015625zm37.117187 8.425781 17.515625 17.515626-11.675781 11.675781-17.515625-17.515625zm35.035156 23.351563 11.679688 11.683594-23.355469 23.355469-11.679688-11.683594zm58.394531 81.753906c-6.535156 6.238281-16.820312 6.238281-23.355468 0l-35.035156-35.039062 23.351562-23.351563 35.039062 35.035156c3.097657 3.09375 4.835938 7.296876 4.835938 11.675782s-1.738281 8.582031-4.835938 11.679687zm0 0"/><path d="m246.722656 320.28125c4.179688-6.363281 9.132813-12.175781 14.75-17.308594 13.0625-10.425781 19.835938-26.84375 17.929688-43.449218 9.390625-6.695313 15.785156-16.796876 17.820312-28.144532 3.257813-28.058594-4.425781-31.65625-7.320312-33.011718-1.742188-.816407-3.640625-1.253907-5.566406-1.28125.011718-1.351563-.023438-2.847657-.03125-4.257813 18.816406-8.835937 30.128906-21.09375 30.128906-35.066406 0-16.929688-16.3125-31.515625-44.707032-40.585938-2.128906-11.070312-5.453124-21.878906-9.90625-32.238281-2-4.441406-5.855468-7.777344-10.539062-9.117188-4.683594-1.339843-9.722656-.546874-13.765625 2.167969-1.308594.878907-2.734375 1.929688-4.292969 3.066407-6.707031 6.035156-15.164062 9.765624-24.144531 10.640624-8.976563-.875-17.441406-4.605468-24.144531-10.644531-1.554688-1.136719-2.984375-2.183593-4.292969-3.0625-4.042969-2.714843-9.078125-3.507812-13.757813-2.171875-4.683593 1.339844-8.535156 4.675782-10.53125 9.113282-4.460937 10.359374-7.785156 21.171874-9.917968 32.246093-28.398438 9.070313-44.710938 23.65625-44.710938 40.585938 0 13.972656 11.316406 26.230469 30.132813 35.0625-.007813 1.40625-.046875 2.898437-.035157 4.25-1.925781.03125-3.820312.472656-5.5625 1.292969-2.898437 1.355468-10.582031 4.953124-7.292968 33.289062 2.097656 11.242188 8.472656 21.234375 17.792968 27.863281-1.910156 16.605469 4.863282 33.023438 17.925782 43.453125 5.621094 5.132813 10.574218 10.945313 14.75 17.308594 6.621094 9.414062 13.46875 19.15625 29.855468 19.15625h19.578126c16.390624 0 23.234374-9.742188 29.855468-19.15625zm-100.011718-112.574219c-.15625-2.753906-.296876-5.558593-.34375-8.585937 14.089843 4.121094 28.601562 6.648437 43.257812 7.53125.792969.058594 1.585938.109375 2.382812.160156 1.910157.113281 3.816407.226562 5.761719.296875.355469.011719.699219.050781 1.054688.0625v12.195313c-7.816407 3.339843-16.289063 4.863281-24.777344 4.457031-11.296875-.25-21.648437-6.355469-27.335937-16.117188zm68.625-.535156c.359374-.011719.699218-.050781 1.054687-.0625 1.945313-.070313 3.851563-.183594 5.761719-.296875.800781-.050781 1.589844-.101562 2.382812-.160156 14.65625-.882813 29.167969-3.410156 43.257813-7.53125-.046875 3.027344-.183594 5.832031-.34375 8.585937-5.691407 9.761719-16.042969 15.863281-27.335938 16.117188-8.488281.398437-16.953125-1.113281-24.777343-4.425781zm-45.886719-115.457031c1.128906.757812 2.363281 1.660156 3.703125 2.640625 9.480468 8.21875 21.402344 13.089843 33.925781 13.859375 12.523437-.769532 24.449219-5.636719 33.929687-13.855469 1.335938-.984375 2.570313-1.886719 3.773438-2.605469 4.714844 11.183594 8.039062 22.90625 9.898438 34.902344.292968 1.792969.523437 3.570312.746093 5.347656.160157 1.253906.34375 2.488282.472657 3.769532.242187 2.40625.390624 4.78125.507812 7.140624.03125.648438.105469 1.277344.128906 1.929688-12.707031 6.859375-26.65625 11.121094-41.03125 12.535156-2.734375.246094-5.546875.382813-8.425781.382813-7.980469-.03125-15.929687-1.035157-23.671875-2.988281-8.976562-2.234376-17.636719-5.574219-25.785156-9.949219.019531-.644531.09375-1.265625.125-1.90625.121094-2.371094.269531-4.75.511718-7.164063.128907-1.273437.3125-2.5.472657-3.746094.222656-1.777343.457031-3.558593.742187-5.351562 1.859375-12.019531 5.210938-23.757812 9.976563-34.941406zm-53.207031 66.046875c0-7.703125 9.652343-15.925781 25.417968-22.195313-.050781.546875-.03125 1.070313-.074218 1.613282-.335938 4.066406-.570313 8.167968-.570313 12.324218 0 2.761719 1.378906 5.339844 3.675781 6.871094 18.796875 11.492188 40.355469 17.679688 62.386719 17.902344 22.03125-.222656 43.589844-6.410156 62.386719-17.902344 2.296875-1.53125 3.679687-4.109375 3.679687-6.871094 0-4.15625-.238281-8.257812-.570312-12.328125-.042969-.542969-.027344-1.0625-.074219-1.609375 15.765625 6.269532 25.417969 14.492188 25.417969 22.195313s-9.523438 15.867187-25.410157 22.148437c-1.097656.4375-2.261718.832032-3.402343 1.246094-16.484375 5.574219-33.691407 8.726562-51.082031 9.351562-.488282.023438-.964844.066407-1.457032.089844-3.109375.128906-6.273437.191406-9.488281.195313-3.214844.003906-6.375-.0625-9.484375-.195313-.496094-.023437-.972656-.066406-1.460938-.089844-17.390624-.625-34.597656-3.777343-51.082031-9.351562-1.136719-.414062-2.304687-.808594-3.398437-1.246094-15.890625-6.28125-25.410156-14.4375-25.410156-22.148437zm64.699218 153.015625c-4.914062-7.4375-10.746094-14.226563-17.355468-20.210938-13.265626-11.660156-12.804688-21.03125-12.160157-34l.066407-1.335937c.136718-2.929688-1.289063-5.714844-3.742188-7.316407-.488281-.320312-1.011719-.585937-1.558594-.789062-6.625-3.761719-11.308594-10.195312-12.855468-17.652344-.492188-4.269531-.667969-8.570312-.527344-12.863281 8.695312 14.535156 24.304687 23.519531 41.238281 23.734375 11.386719.519531 22.726563-1.75 33.03125-6.617188 10.308594 4.867188 21.648437 7.136719 33.035156 6.617188 16.933594-.21875 32.542969-9.203125 41.234375-23.738281.140625 4.183593-.019531 8.367187-.480468 12.527343-1.464844 7.59375-6.179688 14.167969-12.902344 17.992188-.546875.203125-1.066406.46875-1.554688.789062-2.457031 1.601563-3.878906 4.386719-3.742187 7.316407l.066406 1.335937c.644531 12.964844 1.101563 22.339844-12.164063 34-6.609374 5.984375-12.441406 12.773438-17.355468 20.210938-6.480469 9.226562-8.894532 12.144531-16.347656 12.144531h-19.578126c-7.453124 0-9.863281-2.917969-16.347656-12.144531zm0 0"/><path d="m237.699219 275.828125c-3.210938-3.21875-8.417969-3.246094-11.660157-.058594-2.890624 2.992188-6.621093 5.039063-10.703124 5.863281-4.558594 0-8.257813 3.695313-8.257813 8.257813s3.699219 8.257813 8.257813 8.257813c8.476562-.824219 16.386718-4.605469 22.355468-10.675782 3.21875-3.214844 3.21875-8.429687.007813-11.644531zm0 0"/></g><g transform="matrix(0.18079550564289093 0 0 0.18079550564289093 217.5 217.5)" id="L1_22"><path d="M102.6,15.7c0,5.5,4.4,9.9,9.9,9.9h106.4c5.5,0,9.9-4.4,9.9-9.9s-4.4-9.9-9.9-9.9H112.5    C107,5.8,102.6,10.2,102.6,15.7z" fill="#3c92ca"/><path d="M273.4,25.6h108.9c5.5,0,9.9-4.4,9.9-9.9s-4.4-9.9-9.9-9.9H273.4c-5.5,0-9.9,4.4-9.9,9.9    S267.9,25.6,273.4,25.6z" fill="#3c92ca"/><path d="M487.9,415.9h-14.6l-13.7-162.4c-1.5-18.1-14.9-32.9-32.1-36.9l-7.8-120.1    c-0.3-5.2-4.7-9.3-9.9-9.3h-15.4V69.5c0-15.2-12.4-27.6-27.6-27.6h-73.2c-15.2,0-27.6,12.4-27.6,27.6v17.8h-33.9V69.5    c0-15.2-12.4-27.6-27.6-27.6h-73.2c-15.2,0-27.6,12.4-27.6,27.6v17.8H88c-5.2,0-9.5,4.1-9.9,9.3l-7.8,120.1    c-17.2,4-30.5,18.9-31.9,37.2l-12.3,162H9.9c-5.5,0-9.9,4.4-9.9,9.9v32.4C0,476.9,15.2,492,33.8,492h159    c18.7,0,33.8-15.2,33.8-33.8v-32.4c0-5.5-4.4-9.9-9.9-9.9H45.9l12.2-160.5c0.9-11.2,10.3-20,21.5-20c5.2,0,9.5-4.1,9.9-9.3    l7.7-119h16h108.7h53.7h108.7h16l7.7,119c0.3,5.2,4.9,9.3,10.1,9.3c11.1,0,20.6,8.7,21.5,19.8l13.8,160.7H281.1    c-5.5,0-9.9,4.4-9.9,9.9v32.4c0,18.7,15.2,33.8,33.8,33.8h159c18.7,0,33.8-15.2,33.8-33.8v-32.4    C497.8,420.4,493.4,415.9,487.9,415.9z M206.8,435.7v22.5c0,7.7-6.3,14-14,14h-159c-7.7,0-14-6.3-14-14v-22.5H206.8z M212.1,87.4    h-88.9V69.5c0-4.3,3.5-7.8,7.8-7.8h73.2c4.3,0,7.8,3.5,7.8,7.8v17.9H212.1z M374.6,87.4h-88.9V69.5c0-4.3,3.5-7.8,7.8-7.8h73.2    c4.3,0,7.8,3.5,7.8,7.8v17.9H374.6z M478,458.2c0,7.7-6.3,14-14,14H305c-7.7,0-14-6.3-14-14v-22.5h187V458.2z" fill="#2c2f33"/><path d="M194.2,394.4c5.5,0,9.9-4.4,9.9-9.9V266.1h79.2v118.4c0,5.5,4.4,9.9,9.9,9.9s9.9-4.4,9.9-9.9V266.1    h37.8c21.4,0,38.7-17.4,38.7-38.7v-17.6c0-21.4-17.4-38.7-38.7-38.7H158.6c-21.4,0-38.7,17.4-38.7,38.7v17.6    c0,21.4,17.4,38.7,38.7,38.7h25.7v118.4C184.3,389.9,188.7,394.4,194.2,394.4z M158.6,246.3c-10.4,0-18.9-8.5-18.9-18.9v-17.6    c0-10.4,8.5-18.9,18.9-18.9h182.3c10.4,0,18.9,8.5,18.9,18.9v17.6c0,10.4-8.5,18.9-18.9,18.9H158.6z" fill="#2c2f33"/></g><path d="M456,424h-8.67L432.69,255.6A28.045,28.045,0,0,0,456,228V124a28.031,28.031,0,0,0-28-28H383V48h8a8,8,0,0,0,8-8V16a8,8,0,0,0-8-8H295a8,8,0,0,0-8,8V40a8,8,0,0,0,8,8h8V96H288a8,8,0,0,0-8,8v8H232v-8a8,8,0,0,0-8-8H208V48h8a8,8,0,0,0,8-8V16a8,8,0,0,0-8-8H120a8,8,0,0,0-8,8V40a8,8,0,0,0,8,8h8V96H84a28.031,28.031,0,0,0-28,28V228a28.045,28.045,0,0,0,23.31,27.6L64.67,424H56a8,8,0,0,0-8,8v64a8,8,0,0,0,8,8H232a8,8,0,0,0,8-8V432a8,8,0,0,0-8-8h-8.67l-14.6-168H224a8,8,0,0,0,8-8v-8h48v8a8,8,0,0,0,8,8h15.27l-14.6,168H280a8,8,0,0,0-8,8v64a8,8,0,0,0,8,8H456a8,8,0,0,0,8-8V432A8,8,0,0,0,456,424ZM128,24h80v8H128Zm64,24V96H144V48Zm32,392v48H64V440ZM80.73,424l14.6-168h97.34l14.6,168ZM216,240H84a12.01,12.01,0,0,1-12-12V124a12.01,12.01,0,0,1,12-12H216Zm64-16H232V128h48ZM303,24h80v8H303Zm64,24V96H319V48ZM296,240V112H428a12.01,12.01,0,0,1,12,12V228a12.01,12.01,0,0,1-12,12ZM431.27,424H304.73l14.6-168h97.34ZM448,488H288V440H448Z" transform="matrix(0.0390625 0 0 0.0390625 252.5 340)" fill="#000000" id="L1_23"/><path d="M392.81,352,320,337.44V315.86A112.136,112.136,0,0,0,366.85,240H372a28.031,28.031,0,0,0,28-28V188a28.031,28.031,0,0,0-28-28h-4v-8h32a8,8,0,0,0,8-8V120a8,8,0,0,0-8-8H366.86L351.91,14.78A8,8,0,0,0,344,8H168a8,8,0,0,0-7.91,6.78L145.14,112H112a8,8,0,0,0-8,8v24a8,8,0,0,0,8,8h32v8h-4a28.031,28.031,0,0,0-28,28v24a28.031,28.031,0,0,0,28,28h5.15A112.136,112.136,0,0,0,192,315.86v21.58L119.19,352A88.11,88.11,0,0,0,32,440v56a8,8,0,0,0,8,8H472a8,8,0,0,0,8-8V440A88.11,88.11,0,0,0,392.81,352ZM144,224h-4a12.01,12.01,0,0,1-12-12V188a12.01,12.01,0,0,1,12-12h4Zm184,63.42V246.56l22.28-4.46A95.693,95.693,0,0,1,328,287.42ZM352,184H334.99a32.008,32.008,0,0,0-61.98,0H238.99a32.008,32.008,0,0,0-61.98,0H160V152H352Zm-32,8a16,16,0,1,1-16-16A16.021,16.021,0,0,1,320,192Zm-96,0a16,16,0,1,1-16-16A16.021,16.021,0,0,1,224,192Zm148-16a12.01,12.01,0,0,1,12,12v24a12.01,12.01,0,0,1-12,12h-4V176ZM174.86,24H337.14l13.54,88H161.32ZM120,136v-8H392v8Zm64,151.42a95.693,95.693,0,0,1-22.28-45.32L184,246.56Zm-23.98-61.97c-.01-.49-.02-.97-.02-1.45V200h17.01a32.008,32.008,0,0,0,61.98,0h34.02a32.008,32.008,0,0,0,61.98,0H352v24c0,.48-.01.96-.02,1.45L319.7,231.9l-62.71-7.84a8.2,8.2,0,0,0-1.98,0L192.3,231.9ZM208,338.72V325.18a111.88,111.88,0,0,0,96,0v13.54L256,359.3Zm61.8,66.46-13.8,9.2-13.8-9.2L256,383.09ZM256,320a95.521,95.521,0,0,1-56-18.07V247.06l56-7,56,7v54.87A95.521,95.521,0,0,1,256,320ZM120,488V464a8,8,0,0,0-16,0v24H48V440a72.083,72.083,0,0,1,72-72,7.537,7.537,0,0,0,1.57-.16l38.83-7.76-30.91,43.27a8,8,0,0,0,3.98,12.24l35.72,11.91-22.85,22.84a8.016,8.016,0,0,0-1.2,9.78L161.87,488Zm60.53,0-18.46-30.76,27.59-27.58a8,8,0,0,0-3.13-13.25l-37.72-12.57,33.7-47.19a7.567,7.567,0,0,0,.66-1.13l10.23-2.04L214.64,488Zm29.63-130.94,34.11,14.62-25.39,40.61ZM280.21,488H230.84l-8.15-51.62c.03-.05.06-.09.09-.14l10.93-17.48,17.85,11.9a8.026,8.026,0,0,0,8.88,0l17.85-11.9,10.53,16.85ZM267.73,371.68l34.01-14.58-8.98,54.61ZM331.47,488H296.42l22.13-134.53,10.28,2.05a7.567,7.567,0,0,0,.66,1.13l33.7,47.19-37.72,12.57a8,8,0,0,0-3.13,13.25l27.59,27.58ZM464,488H408V464a8,8,0,0,0-16,0v24H350.13l16.73-27.88a8.016,8.016,0,0,0-1.2-9.78L342.81,427.5l35.72-11.91a8,8,0,0,0,3.98-12.24L351.6,360.08l38.83,7.76A7.537,7.537,0,0,0,392,368a72.083,72.083,0,0,1,72,72Z" transform="matrix(0.078125 0 0 0.078125 155 330)" id="L1_24"/></defs><g fi:class="KUsePattern"><pattern id="pattern_L1_15" width="350" height="350" patternUnits="userSpaceOnUse"><use xlink:href="#L1_15" x="-350" y="-350"/><use xlink:href="#L1_15" x="0" y="-350"/><use xlink:href="#L1_15" x="350" y="-350"/><use xlink:href="#L1_15" x="-350" y="0"/><use xlink:href="#L1_15" x="0" y="0"/><use xlink:href="#L1_15" x="350" y="0"/><use xlink:href="#L1_15" x="-350" y="350"/><use xlink:href="#L1_15" x="0" y="350"/><use xlink:href="#L1_15" x="350" y="350"/></pattern><rect x="0" y="0" width="100%" height="100%" fill="url(#pattern_L1_15)"/></g><g fi:class="KUsePattern"><pattern id="pattern_L1_16" width="350" height="350" patternUnits="userSpaceOnUse"><use xlink:href="#L1_16" x="-350" y="-350"/><use xlink:href="#L1_16" x="0" y="-350"/><use xlink:href="#L1_16" x="350" y="-350"/><use xlink:href="#L1_16" x="-350" y="0"/><use xlink:href="#L1_16" x="0" y="0"/><use xlink:href="#L1_16" x="350" y="0"/><use xlink:href="#L1_16" x="-350" y="350"/><use xlink:href="#L1_16" x="0" y="350"/><use xlink:href="#L1_16" x="350" y="350"/></pattern><rect x="0" y="0" width="100%" height="100%" fill="url(#pattern_L1_16)"/></g><g fi:class="KUsePattern"><pattern id="pattern_L1_17" width="350" height="350" patternUnits="userSpaceOnUse"><use xlink:href="#L1_17" x="-350" y="-350"/><use xlink:href="#L1_17" x="0" y="-350"/><use xlink:href="#L1_17" x="350" y="-350"/><use xlink:href="#L1_17" x="-350" y="0"/><use xlink:href="#L1_17" x="0" y="0"/><use xlink:href="#L1_17" x="350" y="0"/><use xlink:href="#L1_17" x="-350" y="350"/><use xlink:href="#L1_17" x="0" y="350"/><use xlink:href="#L1_17" x="350" y="350"/></pattern><rect x="0" y="0" width="100%" height="100%" fill="url(#pattern_L1_17)"/></g><g fi:class="KUsePattern"><pattern id="pattern_L1_18" width="350" height="350" patternUnits="userSpaceOnUse"><use xlink:href="#L1_18" x="-350" y="-350"/><use xlink:href="#L1_18" x="0" y="-350"/><use xlink:href="#L1_18" x="350" y="-350"/><use xlink:href="#L1_18" x="-350" y="0"/><use xlink:href="#L1_18" x="0" y="0"/><use xlink:href="#L1_18" x="350" y="0"/><use xlink:href="#L1_18" x="-350" y="350"/><use xlink:href="#L1_18" x="0" y="350"/><use xlink:href="#L1_18" x="350" y="350"/></pattern><rect x="0" y="0" width="100%" height="100%" fill="url(#pattern_L1_18)"/></g><g fi:class="KUsePattern"><pattern id="pattern_L1_19" width="350" height="350" patternUnits="userSpaceOnUse"><use xlink:href="#L1_19" x="-350" y="-350"/><use xlink:href="#L1_19" x="0" y="-350"/><use xlink:href="#L1_19" x="350" y="-350"/><use xlink:href="#L1_19" x="-350" y="0"/><use xlink:href="#L1_19" x="0" y="0"/><use xlink:href="#L1_19" x="350" y="0"/><use xlink:href="#L1_19" x="-350" y="350"/><use xlink:href="#L1_19" x="0" y="350"/><use xlink:href="#L1_19" x="350" y="350"/></pattern><rect x="0" y="0" width="100%" height="100%" fill="url(#pattern_L1_19)"/></g><g fi:class="KUsePattern"><pattern id="pattern_L1_20" width="350" height="350" patternUnits="userSpaceOnUse"><use xlink:href="#L1_20" x="-350" y="-350"/><use xlink:href="#L1_20" x="0" y="-350"/><use xlink:href="#L1_20" x="350" y="-350"/><use xlink:href="#L1_20" x="-350" y="0"/><use xlink:href="#L1_20" x="0" y="0"/><use xlink:href="#L1_20" x="350" y="0"/><use xlink:href="#L1_20" x="-350" y="350"/><use xlink:href="#L1_20" x="0" y="350"/><use xlink:href="#L1_20" x="350" y="350"/></pattern><rect x="0" y="0" width="100%" height="100%" fill="url(#pattern_L1_20)"/></g><g fi:class="KUsePattern"><pattern id="pattern_L1_21" width="350" height="350" patternUnits="userSpaceOnUse"><use xlink:href="#L1_21" x="-350" y="-350"/><use xlink:href="#L1_21" x="0" y="-350"/><use xlink:href="#L1_21" x="350" y="-350"/><use xlink:href="#L1_21" x="-350" y="0"/><use xlink:href="#L1_21" x="0" y="0"/><use xlink:href="#L1_21" x="350" y="0"/><use xlink:href="#L1_21" x="-350" y="350"/><use xlink:href="#L1_21" x="0" y="350"/><use xlink:href="#L1_21" x="350" y="350"/></pattern><rect x="0" y="0" width="100%" height="100%" fill="url(#pattern_L1_21)"/></g><g fi:class="KUsePattern"><pattern id="pattern_L1_22" width="350" height="350" patternUnits="userSpaceOnUse"><use xlink:href="#L1_22" x="-350" y="-350"/><use xlink:href="#L1_22" x="0" y="-350"/><use xlink:href="#L1_22" x="350" y="-350"/><use xlink:href="#L1_22" x="-350" y="0"/><use xlink:href="#L1_22" x="0" y="0"/><use xlink:href="#L1_22" x="350" y="0"/><use xlink:href="#L1_22" x="-350" y="350"/><use xlink:href="#L1_22" x="0" y="350"/><use xlink:href="#L1_22" x="350" y="350"/></pattern><rect x="0" y="0" width="100%" height="100%" fill="url(#pattern_L1_22)"/></g><g fi:class="KUsePattern"><pattern id="pattern_L1_23" width="350" height="350" patternUnits="userSpaceOnUse"><use xlink:href="#L1_23" x="-350" y="-350"/><use xlink:href="#L1_23" x="0" y="-350"/><use xlink:href="#L1_23" x="350" y="-350"/><use xlink:href="#L1_23" x="-350" y="0"/><use xlink:href="#L1_23" x="0" y="0"/><use xlink:href="#L1_23" x="350" y="0"/><use xlink:href="#L1_23" x="-350" y="350"/><use xlink:href="#L1_23" x="0" y="350"/><use xlink:href="#L1_23" x="350" y="350"/></pattern><rect x="0" y="0" width="100%" height="100%" fill="url(#pattern_L1_23)"/></g><g fi:class="KUsePattern"><pattern id="pattern_L1_24" width="350" height="350" patternUnits="userSpaceOnUse"><use xlink:href="#L1_24" x="-350" y="-350"/><use xlink:href="#L1_24" x="0" y="-350"/><use xlink:href="#L1_24" x="350" y="-350"/><use xlink:href="#L1_24" x="-350" y="0"/><use xlink:href="#L1_24" x="0" y="0"/><use xlink:href="#L1_24" x="350" y="0"/><use xlink:href="#L1_24" x="-350" y="350"/><use xlink:href="#L1_24" x="0" y="350"/><use xlink:href="#L1_24" x="350" y="350"/></pattern><rect x="0" y="0" width="100%" height="100%" fill="url(#pattern_L1_24)"/></g></svg>